<svg xmlns="http://www.w3.org/2000/svg" width="32.766" height="43.227" viewBox="0 0 32.766 43.227"><path d="M92.7,28.48a8.338,8.338,0,0,1-7.164,6.963,2.811,2.811,0,0,0-2.065,1.387A12.479,12.479,0,0,1,72.623,43.14a12.612,12.612,0,0,1-1.3.019,12.483,12.483,0,1,1,4.784-24.4c.241.07.48,1.017.715,1.1.175.062.348-.741.519-.671l3.9-10.65H77.653V9.867a.923.923,0,0,1-.924.924H74.781a.923.923,0,0,1-.924-.924V8.534l.87-.809-.87-.5V2.648A2.648,2.648,0,0,1,76.505,0H81.86l2.519.087c.048,0,.1,0,.144,0a3.572,3.572,0,0,1,.466.047A3.5,3.5,0,0,1,87.9,2.851a.169.169,0,0,1,.009.033l4.711,22.368h0A8.49,8.49,0,0,1,92.7,28.48Z" transform="translate(-60.139 0)" fill="#fed2a4"/><g transform="translate(3.849)"><path d="M238.89,224.615a.654.654,0,0,1-.888-.25,10.563,10.563,0,0,1-.73-8.725,12.561,12.561,0,0,1,1.232.429,9.259,9.259,0,0,0,.637,7.658A.653.653,0,0,1,238.89,224.615Z" transform="translate(-225.15 -196.884)" fill="#ee9347" opacity="0.39"/><path d="M210.19,28.48a8.524,8.524,0,0,1-7.251,7.05,2.811,2.811,0,0,0-2.065,1.387,12.479,12.479,0,0,1-10.851,6.309,12.341,12.341,0,0,1-1.3-.068,12.488,12.488,0,0,0,9.541-6.241,2.811,2.811,0,0,1,2.065-1.387A8.525,8.525,0,0,0,207.5,25.252h0L202.786,2.884a.168.168,0,0,0-.009-.033,3.7,3.7,0,0,0-3-2.8A3.573,3.573,0,0,0,199.313,0c-.048,0-.1,0-.144,0h2.609c.048,0,.1,0,.144,0a3.572,3.572,0,0,1,.466.047,3.7,3.7,0,0,1,3,2.8.167.167,0,0,1,.009.033l4.711,22.368h0A8.491,8.491,0,0,1,210.19,28.48Z" transform="translate(-181.388 0)" fill="#fed2a4"/><path d="M217.863,37.139v-1.3h2.014V31.982a.652.652,0,1,1,1.3,0v3.852h1.361V31.982a.652.652,0,1,1,1.3,0v3.852h1.362V31.982a.652.652,0,0,1,1.3,0v3.852h1.362V31.982a.652.652,0,1,1,1.3,0v4.5a.652.652,0,0,1-.652.652Z" transform="translate(-207.994 -28.605)" fill="#ee9347" opacity="0.39"/><path d="M105.051,295.524a.652.652,0,0,1-.007-1.3,8.012,8.012,0,0,0,8.008-8,.652.652,0,0,1,1.3,0A9.317,9.317,0,0,1,105.051,295.524Z" transform="translate(-104.395 -260.728)" fill="#ee9347" opacity="0.39"/></g></svg>