<svg xmlns="http://www.w3.org/2000/svg" width="35.641" height="36.579" viewBox="0 0 35.641 36.579"><path d="M134.843,150.894a9.38,9.38,0,0,1-8.118,4.191,9.7,9.7,0,0,1-7.99-14.618l7.1-12.187a1.309,1.309,0,0,1,2.268,0l7.1,12.187a9.764,9.764,0,0,1-.356,10.428Zm0,0" transform="translate(-109.069 -118.507)" fill="#f44545"/><path d="M367.227,11.049a5.081,5.081,0,0,1-4.89,3.117,5.214,5.214,0,0,1-4.246-7.86L361.383.652a1.308,1.308,0,0,1,1.59-.572,1.288,1.288,0,0,1,.678.572l3.293,5.653a5.234,5.234,0,0,1,.283,4.743Zm0,0" transform="translate(-332.023 0.001)" fill="#f44545"/><path d="M8.823,108.709a4.511,4.511,0,0,1-4.266,3,4.614,4.614,0,0,1-3.92-6.962l2.916-5.007a1.159,1.159,0,0,1,2.008,0l2.916,5.007a4.629,4.629,0,0,1,.347,3.961Zm0,0" transform="translate(0.001 -92.077)" fill="#f44545"/><path d="M172.587,151.948a9.341,9.341,0,0,1-4.751,1.4,9.69,9.69,0,0,1-8.475-14.618l5.806-9.968a1.3,1.3,0,0,1,.678.573l7.1,12.187a9.764,9.764,0,0,1-.356,10.428Zm0,0" transform="translate(-146.813 -119.562)" fill="#fb5858"/><path d="M404.98,12.109a5.064,5.064,0,0,1-1.648.325c-.059,0-.12,0-.18,0s-.121,0-.18,0a5.214,5.214,0,0,1-4.246-7.859l2-3.434a1.288,1.288,0,0,1,.678.572L404.7,7.366a5.234,5.234,0,0,1,.283,4.743Zm0,0" transform="translate(-369.776 -1.059)" fill="#fb5858"/><path d="M46.575,110.293a4.506,4.506,0,0,1-1.225.207l-.16,0-.159,0a4.617,4.617,0,0,1-3.761-6.96l1.557-2.673a1.151,1.151,0,0,1,.485.458l2.916,5.007a4.629,4.629,0,0,1,.347,3.961Zm0,0" transform="translate(-37.751 -93.661)" fill="#fb5858"/></svg>