<svg xmlns="http://www.w3.org/2000/svg" width="25.318" height="44.129" viewBox="0 0 25.318 44.129"><path d="M118.845,25.128a.444.444,0,0,1,.439.509l-2.416,16.429a2.058,2.058,0,0,0-.019.485,1.628,1.628,0,0,0,1.595,1.578,1.78,1.78,0,0,0,1.5-1.014l11.086-21.791a2.636,2.636,0,0,0-2.444-3.624l-7.611-.152a.444.444,0,0,1-.408-.6L125.994,2.21A1.776,1.776,0,0,0,124.272,0H113.565A1.875,1.875,0,0,0,111.8,1.564l-5.773,20.224a2.564,2.564,0,0,0,2.5,3.34Z" transform="translate(-105.929 0)" fill="#fee590"/><path d="M113.564,0h2.664a1.875,1.875,0,0,0-1.762,1.564l-5.773,20.224a2.564,2.564,0,0,0,2.5,3.339h-2.664a2.564,2.564,0,0,1-2.5-3.339L111.8,1.564A1.875,1.875,0,0,1,113.564,0Z" transform="translate(-105.929 0)" fill="#f3d332"/><path d="M233.934,283.509l-2.7,17.834a2.038,2.038,0,0,0-.023.429,1.478,1.478,0,0,1-.787.23,1.628,1.628,0,0,1-1.594-1.578,2.07,2.07,0,0,1,.019-.486l2.417-16.429a.444.444,0,0,0-.44-.509h2.664A.444.444,0,0,1,233.934,283.509Z" transform="translate(-217.916 -257.872)" fill="#f3d332"/></svg>