<svg xmlns="http://www.w3.org/2000/svg" width="41.439" height="41.438" viewBox="0 0 41.439 41.438"><path d="M39.528,29.759c-.249.249-.5.238-.762.47A18.172,18.172,0,0,1,25.4,34.8a18.764,18.764,0,0,1-11.879-5.293,18.256,18.256,0,0,1-.263-25.489c.228-.237.461-.3.7-.523a.86.86,0,0,0-.92-1.418c-.449.186-.644.22-1.082.437a21.5,21.5,0,0,0,8.294,40.727,20.735,20.735,0,0,0,16.117-6.26,21.686,21.686,0,0,0,4.755-6.991c.363-.88-.519-1.362-1.17-.667Q39.742,29.544,39.528,29.759Z" transform="translate(0.001 -1.841)" fill="#ffe177"/><path d="M182.177,33.473c-.3-4.176-2.944-7.389-7.2-7.389a8.181,8.181,0,0,0-1.25.013q-.3.047-.59.115a8.047,8.047,0,1,0-3.779,13.6l.081.078a7.576,7.576,0,0,0,8.029,7.389c4.446,0,7.216-3.521,7.216-7.967A8.027,8.027,0,0,0,182.177,33.473Z" transform="translate(-146.176 -21.932)" fill="#eef5f6"/><g transform="translate(18.124 6.608)"><path d="M222.013,86.525H218a.625.625,0,0,1-.524-.967l3.291-5.051h-2.643a.625.625,0,1,1,0-1.251h3.8a.625.625,0,0,1,.524.967l-3.291,5.051h2.86a.625.625,0,0,1,0,1.251Z" transform="translate(-217.374 -79.257)" fill="#b5d2d6"/></g><g transform="translate(23.647 9.247)"><path d="M288.251,118.18h-4.014a.625.625,0,0,1-.524-.967L287,112.163H284.36a.625.625,0,0,1,0-1.251h3.8a.625.625,0,0,1,.524.967l-3.291,5.051h2.86a.625.625,0,1,1,0,1.251Z" transform="translate(-283.611 -110.912)" fill="#b5d2d6"/></g><g transform="translate(29.17 11.886)"><path d="M354.488,149.835h-4.014a.625.625,0,0,1-.524-.967l3.291-5.051H350.6a.625.625,0,1,1,0-1.251h3.8a.625.625,0,0,1,.524.967l-3.291,5.051h2.86a.625.625,0,0,1,0,1.251Z" transform="translate(-349.848 -142.567)" fill="#b5d2d6"/></g><path d="M184.622,257.359a1.634,1.634,0,0,1-1.69,1.69,1.708,1.708,0,1,1,0-3.38A1.634,1.634,0,0,1,184.622,257.359Z" transform="translate(-166.054 -234.336)" fill="#eef5f6"/><path d="M77.117,1.495q-.356.333-.7.69A18.214,18.214,0,0,0,90.813,32.966,18.214,18.214,0,0,1,78.921,2.185q.342-.356.7-.69A.86.86,0,0,0,78.7.077q-.674.278-1.332.6a.817.817,0,0,1-.249.813Z" transform="translate(-65.415 -0.007)" fill="#ffc344"/><path d="M262.522,323.6q-.205.219-.42.434-.373.373-.762.719a21.509,21.509,0,0,1-18.521,13.013,21.513,21.513,0,0,0,21.123-13.249A.859.859,0,0,0,262.522,323.6Z" transform="translate(-222.573 -296.37)" fill="#ffc344"/><g transform="translate(27.556 4.07)"><path d="M339.779,56.288a8.051,8.051,0,0,0-9.279-7.375,8.053,8.053,0,0,1,6.777,7.375,8.05,8.05,0,0,1-4.287,13.794,8.05,8.05,0,0,0,6.788-13.794Z" transform="translate(-330.5 -48.816)" fill="#deecf1"/></g><path d="M196.01,254.864a1.767,1.767,0,0,0-.584.1,1.771,1.771,0,0,1,0,3.346,1.773,1.773,0,1,0,.584-3.446Z" transform="translate(-179.132 -233.615)" fill="#deecf1"/><path d="M269.8,256.4a2.226,2.226,0,0,1-2.282,2.282,2.292,2.292,0,1,1,0-4.564A2.226,2.226,0,0,1,269.8,256.4Z" transform="translate(-243.046 -232.928)" fill="#eef5f6"/><path d="M284.36,253.125a2.36,2.36,0,0,0-.834.152,2.366,2.366,0,0,1,0,4.428,2.366,2.366,0,1,0,.834-4.579Z" transform="translate(-259.886 -232.021)" fill="#deecf1"/></svg>