<svg xmlns="http://www.w3.org/2000/svg" width="32.766" height="47.119" viewBox="0 0 32.766 47.119"><path d="M17.38.18c3.311,2.623,11.5,10.761,9.589,25.932A17.016,17.016,0,0,0,31,22.483a.837.837,0,0,1,1.466.347,37.124,37.124,0,0,1,.8,7.019c.2,9.285-7.12,17.253-16.407,17.269A16.384,16.384,0,0,1,.5,30.733c0-7.833,3.792-11.922,5.252-18.66A.836.836,0,0,1,7,11.543,12.488,12.488,0,0,1,11,15.188,27.125,27.125,0,0,0,16.029.815.837.837,0,0,1,17.38.18Zm0,0" transform="translate(-0.5 0)" fill="#ffaa5f"/><path d="M81.412,179.366a5.793,5.793,0,0,1-2.965,2.409,26.826,26.826,0,0,0-3.677-16.015.382.382,0,0,0-.7.12,17.436,17.436,0,0,1-4.273,8.367,6.229,6.229,0,0,0-2.477-1.852.375.375,0,0,0-.481.232c-1.279,3.43-3.7,6.078-4.246,10.021a10.269,10.269,0,0,0,9.25,11.707,10.084,10.084,0,0,0,10.8-10.058,18.81,18.81,0,0,0-.548-4.826A.381.381,0,0,0,81.412,179.366Zm0,0" transform="translate(-56.179 -148.711)" fill="#ffe17d"/><path d="M114.315,289.589a.437.437,0,0,0-.731-.146c-1.322,1.451-4.873,5.7-4.873,9.439a5.361,5.361,0,0,0,10.723,0C119.434,296.067,115.972,293.759,114.315,289.589Zm0,0" transform="translate(-97.687 -259.828)" fill="#fff"/><path d="M16.715,147.824c-1.747-.131-16.775-2.933-11.594-21.84A71.527,71.527,0,0,0,7.394,112.5c-.138-.088-.272-.171-.4-.244a.836.836,0,0,0-1.246.53C4.292,119.524.5,123.613.5,131.446A16.381,16.381,0,0,0,16.715,147.824Zm0,0" transform="translate(-0.5 -100.712)" fill="#ff8c5a"/></svg>