<svg xmlns="http://www.w3.org/2000/svg" width="14.617" height="17.274" viewBox="0 0 14.617 17.274"><g transform="translate(0 0)"><g transform="translate(0 0)"><path d="M49.3,8.01a4.429,4.429,0,1,0-5.208,0,7.32,7.32,0,0,0-4.7,6.828,2.439,2.439,0,0,0,2.436,2.436h9.744A2.439,2.439,0,0,0,54,14.838,7.32,7.32,0,0,0,49.3,8.01Zm-5.7-3.58a3.1,3.1,0,1,1,3.1,3.1A3.1,3.1,0,0,1,43.593,4.429Zm7.973,11.516H41.821a1.109,1.109,0,0,1-1.107-1.107,5.98,5.98,0,1,1,11.959,0A1.109,1.109,0,0,1,51.565,15.945Z" transform="translate(-39.385)" fill="#4f4f4f"/></g></g></svg>