<svg xmlns="http://www.w3.org/2000/svg" width="15.594" height="20.082" viewBox="0 0 15.594 20.082"><path d="M13.182,1.507H11.321V.765A.765.765,0,0,0,10.556,0H4.538a.765.765,0,0,0-.765.765v.742H1.912A1.914,1.914,0,0,0,0,3.419v14.25a1.914,1.914,0,0,0,1.912,1.912h11.27a1.914,1.914,0,0,0,1.912-1.912V3.419a1.915,1.915,0,0,0-1.912-1.912ZM9.791,1.53V3.014H5.3V1.53Zm3.774,16.14a.383.383,0,0,1-.382.382H1.912a.383.383,0,0,1-.382-.382V3.419a.383.383,0,0,1,.382-.382H3.773v.742a.765.765,0,0,0,.765.765h6.018a.765.765,0,0,0,.765-.765V3.037h1.861a.383.383,0,0,1,.382.382ZM11.1,8.931a.765.765,0,0,1,0,1.082l-4.02,4.02a.765.765,0,0,1-1.082,0l-2-2a.765.765,0,0,1,1.082-1.082L6.536,12.41l3.479-3.479a.765.765,0,0,1,1.082,0Zm0,0" transform="translate(0.25 0.25)" fill="#4f4f4f" stroke="#fff" stroke-width="0.5"/></svg>