<svg xmlns="http://www.w3.org/2000/svg" width="22.15" height="22.15" viewBox="0 0 22.15 22.15"><g transform="translate(6.461 6.461)"><path d="M11.615,16.229a4.615,4.615,0,1,1,4.615-4.615A4.62,4.62,0,0,1,11.615,16.229Zm0-8.306a3.692,3.692,0,1,0,3.692,3.692A3.7,3.7,0,0,0,11.615,7.923Z" transform="translate(-7 -7)" fill="#ffd853"/></g><g transform="translate(1.846 1.846)"><path d="M11.229,20.459a9.229,9.229,0,1,1,9.229-9.229A9.24,9.24,0,0,1,11.229,20.459Zm0-17.536a8.306,8.306,0,1,0,8.306,8.306A8.316,8.316,0,0,0,11.229,2.923Z" transform="translate(-2 -2)" fill="#ffd853"/></g><g transform="translate(10.614)"><path d="M11.961,4.615a.462.462,0,0,1-.461-.461V.461a.461.461,0,1,1,.923,0V4.153A.462.462,0,0,1,11.961,4.615Z" transform="translate(-11.5)" fill="#ffd853"/></g><g transform="translate(10.614 17.536)"><path d="M11.961,23.615a.462.462,0,0,1-.461-.461V19.461a.461.461,0,1,1,.923,0v3.692A.462.462,0,0,1,11.961,23.615Z" transform="translate(-11.5 -19)" fill="#ffd853"/></g><g transform="translate(0 10.614)"><path d="M4.153,12.423H.461a.461.461,0,1,1,0-.923H4.153a.461.461,0,1,1,0,.923Z" transform="translate(0 -11.5)" fill="#ffd853"/></g><g transform="translate(17.536 10.614)"><path d="M23.153,12.423H19.461a.461.461,0,1,1,0-.923h3.692a.461.461,0,1,1,0,.923Z" transform="translate(-19 -11.5)" fill="#ffd853"/></g></svg>