<svg xmlns="http://www.w3.org/2000/svg" width="19.191" height="19.193" viewBox="0 0 19.191 19.193"><path d="M19.176,8.348h0L11.345.517a1.767,1.767,0,0,0-2.5,0L1.021,8.342l-.008.008a1.766,1.766,0,0,0,1.176,3.01l.055,0h.312v5.762a2.07,2.07,0,0,0,2.068,2.068H7.686a.562.562,0,0,0,.562-.562V14.113a.945.945,0,0,1,.944-.943H11a.944.944,0,0,1,.943.943v4.517a.562.562,0,0,0,.562.562h3.063a2.07,2.07,0,0,0,2.068-2.068V11.363h.289a1.767,1.767,0,0,0,1.251-3.016Zm-.8,1.7a.638.638,0,0,1-.454.188h-.852a.562.562,0,0,0-.562.562v6.324a.944.944,0,0,1-.943.943h-2.5V14.113A2.07,2.07,0,0,0,11,12.045H9.192a2.071,2.071,0,0,0-2.068,2.068v3.955h-2.5a.945.945,0,0,1-.943-.943V10.8a.562.562,0,0,0-.562-.562H2.254a.642.642,0,0,1-.442-1.1h0L9.641,1.312a.642.642,0,0,1,.908,0l7.827,7.827,0,0a.644.644,0,0,1,0,.907Zm0,0" transform="translate(-0.5 0.001)" fill="#4f4f4f"/></svg>