<svg xmlns="http://www.w3.org/2000/svg" width="9.711" height="11.519" viewBox="0 0 9.711 11.519"><g transform="translate(-40.168)"><g transform="translate(40.168)"><path d="M49.639,1.37,45.121.014a.337.337,0,0,0-.194,0L40.409,1.37a.337.337,0,0,0-.241.323v4.97a3.21,3.21,0,0,0,.778,1.967,8.041,8.041,0,0,0,1.621,1.5,14.541,14.541,0,0,0,2.319,1.358.337.337,0,0,0,.276,0,14.542,14.542,0,0,0,2.319-1.358A8.041,8.041,0,0,0,49.1,8.63a3.21,3.21,0,0,0,.778-1.967V1.693A.337.337,0,0,0,49.639,1.37ZM49.2,6.663c0,1.144-1.148,2.217-2.111,2.915a14.289,14.289,0,0,1-2.07,1.23,14.289,14.289,0,0,1-2.07-1.23c-.963-.7-2.111-1.771-2.111-2.915V1.944L45.024.69,49.2,1.944Z" transform="translate(-40.168 0)"/></g></g></svg>