<svg xmlns="http://www.w3.org/2000/svg" width="15.284" height="21.577" viewBox="0 0 15.284 21.577"><g transform="translate(-74.667)"><g transform="translate(74.667)"><path d="M82.309,0a7.642,7.642,0,1,0,7.642,7.642A7.651,7.651,0,0,0,82.309,0Zm0,14.385a6.743,6.743,0,1,1,6.743-6.743A6.75,6.75,0,0,1,82.309,14.385Z" transform="translate(-74.667)" fill="#8d93a5"/></g><g transform="translate(81.859 14.385)"><path d="M245.783,341.333a.45.45,0,0,0-.45.45v6.293a.45.45,0,1,0,.9,0v-6.293A.45.45,0,0,0,245.783,341.333Z" transform="translate(-245.333 -341.333)" fill="#8d93a5"/></g><g transform="translate(79.162 17.981)"><path d="M187.177,426.667h-5.394a.45.45,0,1,0,0,.9h5.394a.45.45,0,1,0,0-.9Z" transform="translate(-181.333 -426.667)" fill="#8d93a5"/></g></g></svg>